<svg xmlns="http://www.w3.org/2000/svg" xmlns:xlink="http://www.w3.org/1999/xlink" xmlns:lucid="lucid" width="733" height="249"><g transform="translate(-198 -398)" lucid:page-tab-id="0_0"><path d="M340 535.1a6 6 0 0 1 6-6h208a6 6 0 0 1 6 6V614a6 6 0 0 1-6 6H346a6 6 0 0 1-6-6z" stroke="#3a414a" fill="#fff"/><use xlink:href="#a" transform="matrix(1,0,0,1,345,534.090909090909) translate(52.006172839506185 45.62152777777778)"/><use xlink:href="#b" transform="matrix(1,0,0,1,345,534.090909090909) translate(143.179012345679 45.62152777777778)"/><path d="M680 535.1a6 6 0 0 1 6-6h208a6 6 0 0 1 6 6V614a6 6 0 0 1-6 6H686a6 6 0 0 1-6-6z" stroke="#3a414a" fill="#fff"/><use xlink:href="#c" transform="matrix(1,0,0,1,685,534.090909090909) translate(52.006172839506185 45.62152777777778)"/><use xlink:href="#d" transform="matrix(1,0,0,1,685,534.090909090909) translate(143.179012345679 45.62152777777778)"/><path d="M220 571.45a6 6 0 0 1 6-6h93.1a4.55 4.55 0 0 0 4.54-4.54 1.74 1.74 0 0 1 3.04-1.16l9.3 10.35a6.67 6.67 0 0 1 0 8.9l-9.3 10.35a1.74 1.74 0 0 1-3.04-1.17 4.55 4.55 0 0 0-4.55-4.54H226a6 6 0 0 1-6-6zM454 420a6 6 0 0 1 6 6v80.1a5 5 0 0 0 5 5 1.92 1.92 0 0 1 1.28 3.34l-11.82 10.64a6.67 6.67 0 0 1-8.92 0l-11.82-10.64a1.92 1.92 0 0 1 1.28-3.35 5 5 0 0 0 5-5V426a6 6 0 0 1 6-6zM560 571.45a6 6 0 0 1 6-6h93.1a4.55 4.55 0 0 0 4.54-4.54 1.74 1.74 0 0 1 3.04-1.16l9.3 10.35a6.67 6.67 0 0 1 0 8.9l-9.3 10.35a1.74 1.74 0 0 1-3.04-1.17 4.55 4.55 0 0 0-4.55-4.54H566a6 6 0 0 1-6-6z" stroke="#3a414a" fill="#fff"/><g><path d="M796.67 420a6 6 0 0 1 6 6v80.1a5 5 0 0 0 5 5 1.92 1.92 0 0 1 1.28 3.34l-11.82 10.64a6.67 6.67 0 0 1-8.92 0l-11.82-10.64a1.92 1.92 0 0 1 1.3-3.35 5 5 0 0 0 5-5V426a6 6 0 0 1 6-6z" stroke="#3a414a" fill="#fff"/></g><defs><path fill="#3a414a" d="M30-248c87 1 191-15 191 75 0 78-77 80-158 76V0H30v-248zm33 125c57 0 124 11 124-50 0-59-68-47-124-48v98" id="e"/><path fill="#3a414a" d="M114-163C36-179 61-72 57 0H25l-1-190h30c1 12-1 29 2 39 6-27 23-49 58-41v29" id="f"/><path fill="#3a414a" d="M100-194c62-1 85 37 85 99 1 63-27 99-86 99S16-35 15-95c0-66 28-99 85-99zM99-20c44 1 53-31 53-75 0-43-8-75-51-75s-53 32-53 75 10 74 51 75" id="g"/><path fill="#3a414a" d="M177-190C167-65 218 103 67 71c-23-6-38-20-44-43l32-5c15 47 100 32 89-28v-30C133-14 115 1 83 1 29 1 15-40 15-95c0-56 16-97 71-98 29-1 48 16 59 35 1-10 0-23 2-32h30zM94-22c36 0 50-32 50-73 0-42-14-75-50-75-39 0-46 34-46 75s6 73 46 73" id="h"/><path fill="#3a414a" d="M141-36C126-15 110 5 73 4 37 3 15-17 15-53c-1-64 63-63 125-63 3-35-9-54-41-54-24 1-41 7-42 31l-33-3c5-37 33-52 76-52 45 0 72 20 72 64v82c-1 20 7 32 28 27v20c-31 9-61-2-59-35zM48-53c0 20 12 33 32 33 41-3 63-29 60-74-43 2-92-5-92 41" id="i"/><path fill="#3a414a" d="M210-169c-67 3-38 105-44 169h-31v-121c0-29-5-50-35-48C34-165 62-65 56 0H25l-1-190h30c1 10-1 24 2 32 10-44 99-50 107 0 11-21 27-35 58-36 85-2 47 119 55 194h-31v-121c0-29-5-49-35-48" id="j"/><g id="a"><use transform="matrix(0.06172839506172839,0,0,0.06172839506172839,0,0)" xlink:href="#e"/><use transform="matrix(0.06172839506172839,0,0,0.06172839506172839,14.814814814814813,0)" xlink:href="#f"/><use transform="matrix(0.06172839506172839,0,0,0.06172839506172839,22.160493827160494,0)" xlink:href="#g"/><use transform="matrix(0.06172839506172839,0,0,0.06172839506172839,34.50617283950617,0)" xlink:href="#h"/><use transform="matrix(0.06172839506172839,0,0,0.06172839506172839,46.85185185185185,0)" xlink:href="#f"/><use transform="matrix(0.06172839506172839,0,0,0.06172839506172839,54.197530864197525,0)" xlink:href="#i"/><use transform="matrix(0.06172839506172839,0,0,0.06172839506172839,66.5432098765432,0)" xlink:href="#j"/></g><path fill="#3a414a" d="M205 0l-28-72H64L36 0H1l101-248h38L239 0h-34zm-38-99l-47-123c-12 45-31 82-46 123h93" id="k"/><use transform="matrix(0.06172839506172839,0,0,0.06172839506172839,0,0)" xlink:href="#k" id="b"/><g id="c"><use transform="matrix(0.06172839506172839,0,0,0.06172839506172839,0,0)" xlink:href="#e"/><use transform="matrix(0.06172839506172839,0,0,0.06172839506172839,14.814814814814813,0)" xlink:href="#f"/><use transform="matrix(0.06172839506172839,0,0,0.06172839506172839,22.160493827160494,0)" xlink:href="#g"/><use transform="matrix(0.06172839506172839,0,0,0.06172839506172839,34.50617283950617,0)" xlink:href="#h"/><use transform="matrix(0.06172839506172839,0,0,0.06172839506172839,46.85185185185185,0)" xlink:href="#f"/><use transform="matrix(0.06172839506172839,0,0,0.06172839506172839,54.197530864197525,0)" xlink:href="#i"/><use transform="matrix(0.06172839506172839,0,0,0.06172839506172839,66.5432098765432,0)" xlink:href="#j"/></g><use transform="matrix(0.06172839506172839,0,0,0.06172839506172839,0,0)" xlink:href="#k" id="d"/></defs></g></svg>